<svg xmlns="http://www.w3.org/2000/svg" viewBox="0 0 800 600">
  <!-- Background -->
  <rect width="800" height="600" fill="#f8f9fa"/>
  
  <!-- Master Parameter Controller -->
  <rect x="310" y="30" width="180" height="60" rx="5" fill="#e3f2fd" stroke="#1565c0" stroke-width="2"/>
  <text x="400" y="65" font-family="Arial" font-size="16" text-anchor="middle" fill="#1565c0">Master Parameter Controller</text>
  
  <!-- Master Model -->
  <rect x="250" y="130" width="300" height="80" rx="5" fill="#e8f5e9" stroke="#2e7d32" stroke-width="2"/>
  <text x="400" y="165" font-family="Arial" font-size="16" text-anchor="middle" fill="#2e7d32">USpace4210 Master Model</text>
  <text x="400" y="190" font-family="Arial" font-size="12" text-anchor="middle" fill="#2e7d32">(Multi-body construction model)</text>
  
  <!-- Central connection lines -->
  <line x1="400" y1="90" x2="400" y2="130" stroke="#1565c0" stroke-width="2"/>
  <line x1="400" y1="210" x2="400" y2="250" stroke="#2e7d32" stroke-width="2"/>
  
  <!-- Assembly branches -->
  <line x1="400" y1="250" x2="150" y2="300" stroke="#2e7d32" stroke-width="2"/>
  <line x1="400" y1="250" x2="400" y2="300" stroke="#2e7d32" stroke-width="2"/>
  <line x1="400" y1="250" x2="650" y2="300" stroke="#2e7d32" stroke-width="2"/>
  
  <!-- Frame Assembly -->
  <rect x="50" y="300" width="200" height="50" rx="5" fill="#fff3e0" stroke="#e65100" stroke-width="2"/>
  <text x="150" y="330" font-family="Arial" font-size="14" text-anchor="middle" fill="#e65100">Frame Assembly</text>
  
  <!-- Panel Assembly -->
  <rect x="300" y="300" width="200" height="50" rx="5" fill="#fff3e0" stroke="#e65100" stroke-width="2"/>
  <text x="400" y="330" font-family="Arial" font-size="14" text-anchor="middle" fill="#e65100">Panel Assembly</text>
  
  <!-- Door Assembly -->
  <rect x="550" y="300" width="200" height="50" rx="5" fill="#fff3e0" stroke="#e65100" stroke-width="2"/>
  <text x="650" y="330" font-family="Arial" font-size="14" text-anchor="middle" fill="#e65100">Door Assembly</text>
  
  <!-- Sub-components Frame -->
  <line x1="150" y1="350" x2="150" y2="380" stroke="#e65100" stroke-width="2"/>
  <rect x="50" y="380" width="200" height="120" rx="5" fill="#fafafa" stroke="#616161" stroke-width="1"/>
  <text x="150" y="400" font-family="Arial" font-size="12" text-anchor="middle" fill="#616161">Corner Post Family</text>
  <text x="150" y="430" font-family="Arial" font-size="12" text-anchor="middle" fill="#616161">Top/Bottom Frame Family</text>
  <text x="150" y="460" font-family="Arial" font-size="12" text-anchor="middle" fill="#616161">Depth Support Rails Family</text>
  
  <!-- Sub-components Panel -->
  <line x1="400" y1="350" x2="400" y2="380" stroke="#e65100" stroke-width="2"/>
  <rect x="300" y="380" width="200" height="120" rx="5" fill="#fafafa" stroke="#616161" stroke-width="1"/>
  <text x="400" y="400" font-family="Arial" font-size="12" text-anchor="middle" fill="#616161">Side Panel Family</text>
  <text x="400" y="430" font-family="Arial" font-size="12" text-anchor="middle" fill="#616161">Top Panel Family</text>
  <text x="400" y="460" font-family="Arial" font-size="12" text-anchor="middle" fill="#616161">Bottom Panel Family</text>
  
  <!-- Sub-components Door -->
  <line x1="650" y1="350" x2="650" y2="380" stroke="#e65100" stroke-width="2"/>
  <rect x="550" y="380" width="200" height="120" rx="5" fill="#fafafa" stroke="#616161" stroke-width="1"/>
  <text x="650" y="400" font-family="Arial" font-size="12" text-anchor="middle" fill="#616161">Door Frame Family</text>
  <text x="650" y="430" font-family="Arial" font-size="12" text-anchor="middle" fill="#616161">Door Insert Family</text>
  <text x="650" y="460" font-family="Arial" font-size="12" text-anchor="middle" fill="#616161">HX Integration Family</text>
  
  <!-- Arrows for parameters -->
  <path d="M 430 90 L 460 90 L 460 270 L 490 270" stroke="#1565c0" stroke-width="1" fill="none" stroke-dasharray="4,2"/>
  <path d="M 370 90 L 340 90 L 340 270 L 310 270" stroke="#1565c0" stroke-width="1" fill="none" stroke-dasharray="4,2"/>
  <path d="M 430 90 L 480 90 L 480 290 L 530 290" stroke="#1565c0" stroke-width="1" fill="none" stroke-dasharray="4,2"/>
  <path d="M 370 90 L 320 90 L 320 290 L 270 290" stroke="#1565c0" stroke-width="1" fill="none" stroke-dasharray="4,2"/>
  
  <!-- Legend -->
  <rect x="600" y="520" width="15" height="15" fill="#e3f2fd" stroke="#1565c0" stroke-width="1"/>
  <text x="625" y="532" font-family="Arial" font-size="12" text-anchor="start" fill="#333">Parameter Control</text>
  
  <rect x="600" y="545" width="15" height="15" fill="#e8f5e9" stroke="#2e7d32" stroke-width="1"/>
  <text x="625" y="557" font-family="Arial" font-size="12" text-anchor="start" fill="#333">Master Model</text>
  
  <rect x="600" y="570" width="15" height="15" fill="#fff3e0" stroke="#e65100" stroke-width="1"/>
  <text x="625" y="582" font-family="Arial" font-size="12" text-anchor="start" fill="#333">Assemblies</text>
</svg>
